<svg width="16" height="16" viewBox="0 0 16 16" fill="none" xmlns="http://www.w3.org/2000/svg">
<path d="M8.00004 1.33333C6.6815 1.33333 5.39257 1.72432 4.29624 2.45686C3.19991 3.18941 2.34543 4.2306 1.84085 5.44877C1.33626 6.66695 1.20424 8.00739 1.46148 9.3006C1.71871 10.5938 2.35365 11.7817 3.286 12.714C4.21835 13.6464 5.40623 14.2813 6.69944 14.5386C7.99265 14.7958 9.33309 14.6638 10.5513 14.1592C11.7694 13.6546 12.8106 12.8001 13.5432 11.7038C14.2757 10.6075 14.6667 9.31854 14.6667 8C14.6667 7.12452 14.4943 6.25761 14.1592 5.44877C13.8242 4.63993 13.3331 3.90501 12.7141 3.28595C12.095 2.66689 11.3601 2.17583 10.5513 1.8408C9.74243 1.50577 8.87552 1.33333 8.00004 1.33333ZM8.00004 2.66666C8.40176 2.66929 8.80196 2.71624 9.19338 2.80666C9.07749 3.06826 8.89889 3.29724 8.67338 3.47333C8.52671 3.58666 8.36671 3.68 8.20671 3.77999C7.70019 4.02938 7.27313 4.41489 6.97338 4.89333C6.645 5.57771 6.50245 6.33643 6.56004 7.09333C6.56004 8 6.56004 8.53333 5.92671 9.00666C5.01338 9.72 3.62004 9.31999 2.75338 8.95999C2.69672 8.64311 2.66772 8.3219 2.66671 8C2.66671 6.58551 3.22861 5.22895 4.22881 4.22876C5.229 3.22856 6.58556 2.66666 8.00004 2.66666ZM11.26 12.2133C11.1447 11.9471 11.0041 11.6926 10.84 11.4533C10.7667 11.3467 10.6934 11.24 10.6267 11.1267C10.3667 10.6733 10.46 10.46 10.88 9.79333L10.9467 9.68C11.2172 9.18394 11.3507 8.62476 11.3334 8.06C11.3327 7.8364 11.3528 7.61322 11.3934 7.39333C11.5 6.90666 12.5334 6.77333 13.1734 6.72666C13.432 7.73234 13.3892 8.79189 13.0502 9.7734C12.7111 10.7549 12.0909 11.615 11.2667 12.2467L11.26 12.2133Z" fill="#01416C"/>
</svg>
